<svg width="206" height="31" viewBox="0 0 206 31" fill="none" xmlns="http://www.w3.org/2000/svg">
<path d="M14.97 19.28H7.11L5.85 23H0.48L8.1 1.94H14.04L21.66 23H16.23L14.97 19.28ZM13.65 15.32L11.04 7.61L8.46 15.32H13.65ZM29.1091 8.63C29.5891 7.85 30.2791 7.22 31.1791 6.74C32.0791 6.26 33.1091 6.02 34.2691 6.02C35.6491 6.02 36.8991 6.37 38.0191 7.07C39.1391 7.77 40.0191 8.77 40.6591 10.07C41.3191 11.37 41.6491 12.88 41.6491 14.6C41.6491 16.32 41.3191 17.84 40.6591 19.16C40.0191 20.46 39.1391 21.47 38.0191 22.19C36.8991 22.89 35.6491 23.24 34.2691 23.24C33.0891 23.24 32.0591 23.01 31.1791 22.55C30.2991 22.07 29.6091 21.44 29.1091 20.66V23H23.9791V0.8H29.1091V8.63ZM36.4291 14.6C36.4291 13.32 36.0691 12.32 35.3491 11.6C34.6491 10.86 33.7791 10.49 32.7391 10.49C31.7191 10.49 30.8491 10.86 30.1291 11.6C29.4291 12.34 29.0791 13.35 29.0791 14.63C29.0791 15.91 29.4291 16.92 30.1291 17.66C30.8491 18.4 31.7191 18.77 32.7391 18.77C33.7591 18.77 34.6291 18.4 35.3491 17.66C36.0691 16.9 36.4291 15.88 36.4291 14.6ZM49.4705 8.63C49.9505 7.85 50.6405 7.22 51.5405 6.74C52.4405 6.26 53.4705 6.02 54.6305 6.02C56.0105 6.02 57.2605 6.37 58.3805 7.07C59.5005 7.77 60.3805 8.77 61.0205 10.07C61.6805 11.37 62.0105 12.88 62.0105 14.6C62.0105 16.32 61.6805 17.84 61.0205 19.16C60.3805 20.46 59.5005 21.47 58.3805 22.19C57.2605 22.89 56.0105 23.24 54.6305 23.24C53.4505 23.24 52.4205 23.01 51.5405 22.55C50.6605 22.07 49.9705 21.44 49.4705 20.66V23H44.3405V0.8H49.4705V8.63ZM56.7905 14.6C56.7905 13.32 56.4305 12.32 55.7105 11.6C55.0105 10.86 54.1405 10.49 53.1005 10.49C52.0805 10.49 51.2105 10.86 50.4905 11.6C49.7905 12.34 49.4405 13.35 49.4405 14.63C49.4405 15.91 49.7905 16.92 50.4905 17.66C51.2105 18.4 52.0805 18.77 53.1005 18.77C54.1205 18.77 54.9905 18.4 55.7105 17.66C56.4305 16.9 56.7905 15.88 56.7905 14.6ZM63.6818 14.6C63.6818 12.88 64.0018 11.37 64.6418 10.07C65.3018 8.77 66.1918 7.77 67.3118 7.07C68.4318 6.37 69.6818 6.02 71.0618 6.02C72.2418 6.02 73.2718 6.26 74.1518 6.74C75.0518 7.22 75.7418 7.85 76.2218 8.63V6.26H81.3518V23H76.2218V20.63C75.7218 21.41 75.0218 22.04 74.1218 22.52C73.2418 23 72.2118 23.24 71.0318 23.24C69.6718 23.24 68.4318 22.89 67.3118 22.19C66.1918 21.47 65.3018 20.46 64.6418 19.16C64.0018 17.84 63.6818 16.32 63.6818 14.6ZM76.2218 14.63C76.2218 13.35 75.8618 12.34 75.1418 11.6C74.4418 10.86 73.5818 10.49 72.5618 10.49C71.5418 10.49 70.6718 10.86 69.9518 11.6C69.2518 12.32 68.9018 13.32 68.9018 14.6C68.9018 15.88 69.2518 16.9 69.9518 17.66C70.6718 18.4 71.5418 18.77 72.5618 18.77C73.5818 18.77 74.4418 18.4 75.1418 17.66C75.8618 16.92 76.2218 15.91 76.2218 14.63ZM90.1931 0.8V23H85.0631V0.8H90.1931ZM111.011 6.26L100.511 30.95H94.9908L98.8308 22.43L92.0208 6.26H97.7508L101.621 16.73L105.461 6.26H111.011Z" fill="#394240"/>
<path d="M130.596 2.09L122.706 23H119.556L111.666 2.09H114.576L121.146 20.12L127.716 2.09H130.596ZM140.759 23.27C139.219 23.27 137.819 22.92 136.559 22.22C135.319 21.52 134.339 20.53 133.619 19.25C132.919 17.95 132.569 16.45 132.569 14.75C132.569 13.07 132.929 11.59 133.649 10.31C134.389 9.01 135.389 8.02 136.649 7.34C137.909 6.64 139.319 6.29 140.879 6.29C142.439 6.29 143.849 6.64 145.109 7.34C146.369 8.02 147.359 9 148.079 10.28C148.819 11.56 149.189 13.05 149.189 14.75C149.189 16.45 148.809 17.95 148.049 19.25C147.309 20.53 146.299 21.52 145.019 22.22C143.739 22.92 142.319 23.27 140.759 23.27ZM140.759 20.87C141.739 20.87 142.659 20.64 143.519 20.18C144.379 19.72 145.069 19.03 145.589 18.11C146.129 17.19 146.399 16.07 146.399 14.75C146.399 13.43 146.139 12.31 145.619 11.39C145.099 10.47 144.419 9.79 143.579 9.35C142.739 8.89 141.829 8.66 140.849 8.66C139.849 8.66 138.929 8.89 138.089 9.35C137.269 9.79 136.609 10.47 136.109 11.39C135.609 12.31 135.359 13.43 135.359 14.75C135.359 16.09 135.599 17.22 136.079 18.14C136.579 19.06 137.239 19.75 138.059 20.21C138.879 20.65 139.779 20.87 140.759 20.87ZM155.509 9.23C155.989 8.29 156.669 7.56 157.549 7.04C158.449 6.52 159.539 6.26 160.819 6.26V9.08H160.099C157.039 9.08 155.509 10.74 155.509 14.06V23H152.779V6.56H155.509V9.23ZM167.3 8.81V18.5C167.3 19.3 167.47 19.87 167.81 20.21C168.15 20.53 168.74 20.69 169.58 20.69H171.59V23H169.13C167.61 23 166.47 22.65 165.71 21.95C164.95 21.25 164.57 20.1 164.57 18.5V8.81H162.44V6.56H164.57V2.42H167.3V6.56H171.59V8.81H167.3ZM189.898 14.15C189.898 14.67 189.868 15.22 189.808 15.8H176.668C176.768 17.42 177.318 18.69 178.318 19.61C179.338 20.51 180.568 20.96 182.008 20.96C183.188 20.96 184.168 20.69 184.948 20.15C185.748 19.59 186.308 18.85 186.628 17.93H189.568C189.128 19.51 188.248 20.8 186.928 21.8C185.608 22.78 183.968 23.27 182.008 23.27C180.448 23.27 179.048 22.92 177.808 22.22C176.588 21.52 175.628 20.53 174.928 19.25C174.228 17.95 173.878 16.45 173.878 14.75C173.878 13.05 174.218 11.56 174.898 10.28C175.578 9 176.528 8.02 177.748 7.34C178.988 6.64 180.408 6.29 182.008 6.29C183.568 6.29 184.948 6.63 186.148 7.31C187.348 7.99 188.268 8.93 188.908 10.13C189.568 11.31 189.898 12.65 189.898 14.15ZM187.078 13.58C187.078 12.54 186.848 11.65 186.388 10.91C185.928 10.15 185.298 9.58 184.498 9.2C183.718 8.8 182.848 8.6 181.888 8.6C180.508 8.6 179.328 9.04 178.348 9.92C177.388 10.8 176.838 12.02 176.698 13.58H187.078ZM202.081 23L198.181 16.88L194.431 23H191.581L196.891 14.84L191.581 6.56H194.671L198.571 12.65L202.291 6.56H205.141L199.861 14.69L205.171 23H202.081Z" fill="#6A41C0"/>
</svg>
