<svg width="44" height="44" viewBox="0 0 44 44" fill="none" xmlns="http://www.w3.org/2000/svg">
<path d="M28.875 41.25C26.6994 41.25 24.5727 40.6049 22.7637 39.3962C20.9548 38.1875 19.5449 36.4695 18.7123 34.4595C17.8798 32.4495 17.6619 30.2378 18.0864 28.104C18.5108 25.9702 19.5585 24.0102 21.0968 22.4718C22.6352 20.9335 24.5952 19.8858 26.729 19.4614C28.8628 19.0369 31.0745 19.2548 33.0845 20.0873C35.0945 20.9199 36.8125 22.3298 38.0212 24.1387C39.2299 25.9477 39.875 28.0744 39.875 30.25C39.875 33.1674 38.7161 35.9653 36.6532 38.0282C34.5903 40.0911 31.7924 41.25 28.875 41.25ZM28.875 22C27.2433 22 25.6483 22.4839 24.2915 23.3904C22.9348 24.2969 21.8774 25.5854 21.253 27.0929C20.6286 28.6004 20.4652 30.2592 20.7835 31.8595C21.1019 33.4598 21.8876 34.9299 23.0414 36.0836C24.1952 37.2374 25.6652 38.0232 27.2655 38.3415C28.8659 38.6598 30.5247 38.4964 32.0321 37.872C33.5396 37.2476 34.8281 36.1902 35.7346 34.8335C36.6412 33.4768 37.125 31.8817 37.125 30.25C37.125 28.062 36.2558 25.9635 34.7086 24.4164C33.1615 22.8692 31.063 22 28.875 22Z" fill="#F4AB6A"/>
<path d="M31.0613 34.375L27.5 30.8137V24.75H30.25V29.6863L33 32.4363L31.0613 34.375Z" fill="#F4AB6A"/>
<path d="M38.5 8.25C38.5 7.52065 38.2103 6.82118 37.6945 6.30546C37.1788 5.78973 36.4793 5.5 35.75 5.5H30.25V2.75H27.5V5.5H16.5V2.75H13.75V5.5H8.25C7.52065 5.5 6.82118 5.78973 6.30546 6.30546C5.78973 6.82118 5.5 7.52065 5.5 8.25V35.75C5.5 36.4793 5.78973 37.1788 6.30546 37.6945C6.82118 38.2103 7.52065 38.5 8.25 38.5H13.75V35.75H8.25V8.25H13.75V11H16.5V8.25H27.5V11H30.25V8.25H35.75V16.5H38.5V8.25Z" fill="#F4AB6A"/>
</svg>
