<svg width="274" height="26" viewBox="0 0 274 26" fill="none" xmlns="http://www.w3.org/2000/svg">
<path d="M4.38982 15.4016C21.6542 13.3302 34.8321 8.45608 52.0385 6.52925C65.4741 5.02469 79.1383 4.62275 93.0385 4.23361C109.979 3.75935 127.648 3.1168 145.243 3.1168C156.397 3.1168 167.191 4.23361 177.993 4.23361C184.579 4.23361 16.7021 16.5184 201.633 4.48178C211.541 6.70072 222.55 6.53568 232.66 8.94899C240.433 10.8044 249.74 13.2814 258.147 14.2228C259.623 14.3881 275.428 16.9818 271.321 17.5732C265.063 18.4742 258.262 14.6411 252.606 14.2848C247.245 13.9471 244.138 10.9344 237.093 10.9344C221.962 10.9344 206.801 5.35041 191.537 5.35041C172.419 5.35041 152.809 6.46721 134.162 6.46721C122.543 6.46721 112.225 8.70082 100.672 8.70082C85.8268 8.70082 70.3316 8.78218 56.594 12.0512C48.2189 14.0442 35.6202 18.3168 26.552 18.752C20.0463 19.0643 10.8224 21.4535 4.51294 20.9236C0.627406 20.5973 2.03473 18.3257 3.89733 17.3871C6.75436 15.9473 12.6099 15.8723 16.579 15.4016C25.2667 14.3715 38.5241 12.3781 46.4979 10.6862C53.7357 9.15055 61.6717 9.09665 68.6601 7.33583C77.2295 5.17667 50.6389 8.38566 46.4979 9.19717C36.157 11.2237 26.2564 13.7672 16.7021 16.5184C12.2598 17.7976 26.6802 16.9095 27.7832 16.7666C32.2048 16.1937 36.0922 14.8603 40.3418 14.0367C54.5296 11.2868 24.0316 14.3505 19.1646 15.4016C-2.19131 20.0138 28.9577 15.6992 36.7712 14.8432C45.5244 13.8843 59.7049 12.1409 66.567 9.25922C72.9316 6.58651 95.8926 6.63532 102.888 5.84676C113.288 4.67457 123.938 5.30269 134.038 4.17156C142.492 3.22492 148.319 2 157.309 2" stroke="#F4AB6A" stroke-width="3" stroke-linecap="round"/>
<path d="M158.041 8.99997C172.513 6.64564 185.341 5.99997 200.084 5.99997C204.337 5.99997 210.786 6.73759 214.222 9.22219C220.037 13.4271 209.102 8.54293 207.215 8.05552C201.882 6.6784 193.541 7.92532 188.467 8.94441C182.756 10.0916 175.573 8.99997 169.659 8.99997C158.779 8.99997 147.899 8.99997 137.02 8.99997C132.2 8.99997 125.914 9.10952 121.53 10.7777C119.463 11.5647 107.942 12.5416 106.041 11.7777C96.4829 7.93825 85.6909 11 75.5536 11C68.5546 11 61.3618 12 54.5935 12C48.8075 12 45.5434 19 40.3334 19C30.7623 19 20.2624 21 10.3378 21C7.86782 21 6.01849 20.5274 3.76087 19.9444C1.91105 19.4667 9.03271 20 9.78457 20C15.0078 20 19.0195 21 24.1677 21C29.3862 21 33.5517 20 38.5508 20C48.6823 20 58.94 16.0714 68.9767 14.0555C73.5319 13.1406 79.8566 13 84.4662 13C90.4262 13 95.3474 11 101.062 11C110.442 11 98.9224 11 95.5301 11C92.5798 11 89.6294 11 86.679 11C85.3615 11 78.6337 12.4905 77.5205 13.2222C73.2682 16.0174 65.7916 11.9825 61.5392 14.7777C57.5619 17.3922 41.8693 15 46.7873 15C53.5001 15 59.6519 14.3487 66.2107 14C68.0318 13.9031 71.641 11.7762 73.7096 11.2222C76.5742 10.455 80.3621 11 83.3598 11C88.2958 11 95.2017 12.1562 99.8943 10.9444C104.407 9.77913 109.846 7.99997 114.892 7.99997C119.034 7.99997 122.735 7.53236 126.817 6.77774C132.657 5.69801 138.808 5.51266 144.519 4.22219C151.411 2.66476 160.414 3.99997 167.507 3.99997C174.39 3.99997 180.362 5.99997 187.361 5.99997C189.201 5.99997 194.61 6.99997 192.77 6.99997C189.45 6.99997 186.956 7.17593 183.98 7.94441C177.667 9.57464 190.334 8.99997 192.893 8.99997C198.085 8.99997 204.999 7.75361 209.181 10.7777C210.664 11.8496 221.422 11.9047 223.319 12C229.265 12.2986 234.944 10.6948 241.021 11C243.42 11.1204 247.584 13.1882 249.872 14.2222C253.455 15.8412 257.399 16.1793 260.936 17.7777C263.635 18.9975 265.703 19 268.681 19C272.685 19 271.037 18 268.128 18C263.94 18 258.013 16.8017 253.745 15.9444C250.801 15.3532 249.222 14 246 14C243.218 14 239.846 14.4862 237.149 13.9444C231.722 12.8545 225.978 13.1453 220.553 12.0555C218.159 11.5747 215.997 10.6093 213.853 10.0555C211.3 9.39621 208.085 10.7695 205.616 9.77774C203.131 8.77939 194.783 8.99997 197.503 8.99997C200.813 8.99997 204.606 8.53666 207.829 9.22219C209.901 9.66284 216.558 11 211.148 11C207.829 11 204.51 11 201.191 11C197.533 11 197.546 9.81694 201.191 9.99997C204.141 10.1481 206.967 12 210.042 12C214.923 12 224.238 12.011 228.851 13.5C232.183 14.5758 243.351 12.1319 245.447 14.5C248.476 17.9231 257.344 16.001 261.428 17.0555C263.249 17.5259 265.056 18.564 266.96 19.0555C267.856 19.2869 266.175 20.3919 265.116 19C264.454 18.1296 262.631 17.2848 261.489 17.0555C255.877 15.9283 248.857 15 243.234 15C235.347 15 225.921 16.3983 218.893 13.2222C214.049 11.0332 204.642 11.1813 199.224 11C185.875 10.5531 172.786 11 159.701 11C153.536 11 148.04 9.99997 141.937 9.99997C136.285 9.99997 132.197 12 126.448 12C116.405 12 106.095 11.5762 96.5751 14.4444C90.887 16.1581 85.3956 16 79.2416 16C73.8448 16 69.1804 18 63.9979 18C59.9035 18 55.8141 18.3986 51.8276 19.2222C44.1696 20.8043 36.7427 22.5298 29.1465 24.0555C22.9189 25.3063 -8.12289 22.0927 5.35899 16" stroke="#F4AB6A" stroke-width="3" stroke-linecap="round"/>
<path d="M106.041 10C109.952 10 113.019 9 116.429 9C119.522 9 110.241 9 107.147 9" stroke="#F4AB6A" stroke-width="3" stroke-linecap="round"/>
<path d="M229.957 16C236.456 13.7077 240.996 11.9925 247.659 14" stroke="#F4AB6A" stroke-width="3" stroke-linecap="round"/>
<path d="M232.17 16C238.1 16 242.577 17 248.213 17C251.968 17 256.492 16.8815 259.83 18.2222C261.921 19.0624 263.625 19 265.915 19C269.907 19 266.644 19.4025 264.87 18.9444C260.895 17.9178 258.512 17 253.745 17C249.231 17 241.128 16.6695 237.087 15C233.829 13.6537 227.454 12 223.872 12C221.12 12 219.42 10 216.68 10C213.361 10 210.042 10 206.723 10C202.389 10 198.111 10.144 194.552 8" stroke="#F4AB6A" stroke-width="3" stroke-linecap="round"/>
</svg>
