<svg width="87" height="43" viewBox="0 0 87 43" fill="none" xmlns="http://www.w3.org/2000/svg">
<path d="M2.33342 20.9444C5.23839 25.1981 10.1017 20.8952 12.889 25.2222C15.4402 29.1827 21.2786 39.9605 26.2779 41.3888C28.7979 42.1089 21.6101 4.22873 12.889 2C1.60888 -0.88269 20.932 31.0144 12.2223 32.7222C8.98633 33.3567 -0.964179 33 2.33342 33C7.19975 33 12.0302 33.233 16.889 33.5C24.3502 33.9099 32.038 33.7872 39.3334 35.6111C41.1243 36.0588 47.1846 40.3657 47.0001 36.4444C46.6848 29.7441 60.0792 30.273 56.0001 25M56.0001 25C56.0001 6.99999 28.5785 11.2692 33.2779 20.9444C40.6976 36.2204 53.8357 40.8793 69.5556 39.5555C71.1895 39.4179 79.0278 38.6377 80.7779 38.4444C81.9246 38.3178 88.1823 38.5254 84.1667 36.5555C80.7779 20.9444 65.3881 28.7552 56.0001 25Z" stroke="#5F6368" stroke-width="3" stroke-linecap="round"/>
</svg>
